<?xml version="1.0" standalone="no"?>
<!DOCTYPE svg PUBLIC "-//W3C//DTD SVG 20010904//EN"
 "http://www.w3.org/TR/2001/REC-SVG-20010904/DTD/svg10.dtd">
<svg version="1.0" xmlns="http://www.w3.org/2000/svg"
 width="311.000000pt" height="311.000000pt" viewBox="0 0 311.000000 311.000000"
 preserveAspectRatio="xMidYMid meet">
<metadata>
Created by potrace 1.14, written by Peter Selinger 2001-2017
</metadata>
<g transform="translate(0.000000,311.000000) scale(0.100000,-0.100000)"
fill="#000000" stroke="none">
<path d="M1891 2070 c0 -181 2 -330 4 -330 2 0 30 26 63 58 33 31 130 125 217
207 86 83 210 201 274 262 l116 113 -90 0 c-49 1 -124 3 -165 5 -41 2 -152 6
-247 10 l-172 6 0 -331z"/>
<path d="M1823 2347 c-8 -15 -171 -191 -319 -347 -45 -47 -108 -112 -139 -145
-31 -33 -77 -81 -102 -107 l-46 -48 314 0 314 0 -1 325 c0 179 -3 328 -6 331
-4 3 -10 -1 -15 -9z"/>
<path d="M2420 2169 c-58 -56 -92 -94 -76 -84 16 9 84 50 152 90 113 66 122
73 97 78 -16 4 -37 9 -48 12 -17 5 -43 -15 -125 -96z"/>
<path d="M840 1950 l0 -250 154 0 154 0 69 71 c37 39 70 75 71 80 2 5 -12 26
-31 47 -48 50 -96 102 -196 211 l-84 91 -69 0 -68 0 0 -250z"/>
<path d="M760 2139 c-70 -63 -119 -109 -117 -110 1 -1 33 -2 70 -3 46 -2 70 1
73 9 3 7 4 38 2 69 l-3 57 -25 -22z"/>
<path d="M911 1613 c20 -21 69 -73 110 -117 41 -43 108 -114 149 -157 41 -43
129 -135 195 -205 66 -70 138 -146 160 -170 l41 -42 18 51 c24 71 104 288 215
585 17 46 31 86 31 88 0 2 -215 4 -477 4 l-477 0 35 -37z"/>
<path d="M1815 1463 c-10 -32 -21 -62 -25 -68 -3 -5 -14 -35 -24 -65 -11 -30
-24 -66 -29 -80 -6 -14 -11 -29 -13 -35 -1 -5 -45 -126 -97 -267 l-95 -258 87
-47 c132 -71 153 -83 189 -105 l32 -20 1 34 c4 153 3 968 -1 968 -3 0 -14 -26
-25 -57z"/>
</g>
</svg>
